<svg transform="scale(1)" version="1.1" id="Layer_1" xmlns="http://www.w3.org/2000/svg" xmlns:xlink="http://www.w3.org/1999/xlink" x="0px" y="0px" viewBox="0 0 500 500" xml:space="preserve" class="show_show__wrapper__graphic__5Waiy "><title>React</title><style type="text/css">
	.st0{fill:#68E1FD;}
	.st1{fill:#093F68;}
	.st2{fill:#FFFFFF;}
	.st3{fill:#70CC40;}
	.st4{fill:#FFBC0E;}
	.st5{fill:#F56132;}
	.st6{fill:#DFEAEF;}
</style><g id="device"><path class="st0" d="M75.9,365.4h348.3l0,0v13.1c0,8.5-6.9,15.3-15.3,15.3l0,0H91.2c-8.5,0-15.3-6.9-15.3-15.3l0,0V365.4
		L75.9,365.4z"></path><path class="st1" d="M407.8,396H92.2c-10.2,0-18.4-8.3-18.4-18.5v-12.1c0-1.1,0.9-2.1,2.1-2.1h348.3c1.1,0,2.1,0.9,2.1,2.1v12.1
		C426.3,387.7,418,396,407.8,396z M77.9,367.5v10.1c0,7.9,6.4,14.3,14.3,14.3h315.6c7.9,0,14.3-6.4,14.3-14.3v-10.1H77.9z"></path><path class="st0" d="M114.3,168h271.5c8.3,0,14.9,6.7,14.9,14.9c0,0,0,0,0,0.1v182.4l0,0H99.3l0,0V183
		C99.3,174.7,106,168,114.3,168C114.2,168,114.2,168,114.3,168z"></path><path class="st1" d="M400.7,367.5H99.3c-1.1,0-2.1-0.9-2.1-2.1V182.5c0-9.1,7.4-16.5,16.6-16.5h272.3c9.2,0,16.6,7.4,16.6,16.6
		v182.8C402.8,366.6,401.9,367.5,400.7,367.5z M101.4,363.4h297.3V182.5c0-6.9-5.6-12.5-12.5-12.5H113.9c-6.9,0-12.5,5.6-12.5,12.5
		V363.4z"></path><rect class="st2" x="121.9" y="191.3" width="256.3" height="152.1"></rect><path class="st1" d="M378.2,345.4H121.9c-1.1,0-2.1-0.9-2.1-2.1l0,0V191.3c0-1.1,0.9-2.1,2.1-2.1h0h256.3c1.1,0,2.1,0.9,2.1,2.1v0
		v152.1C380.3,344.5,379.3,345.4,378.2,345.4L378.2,345.4z M123.9,341.3h252.2v-148H123.9V341.3z"></path><path class="st1" d="M223.5,365.4h53l0,0v8c0,2.6-2.1,4.7-4.7,4.7l0,0h-43.6c-2.6,0-4.7-2.1-4.7-4.7l0,0L223.5,365.4L223.5,365.4z"></path><path class="st1" d="M266.9,380.2h-33.7c-6.5,0-11.7-5.3-11.7-11.7v-3c0-1.1,0.9-2.1,2.1-2.1h53.1c1.1,0,2.1,0.9,2.1,2.1v3
		C278.6,374.9,273.4,380.2,266.9,380.2z M225.6,367.5v0.9c0,4.2,3.4,7.6,7.6,7.6h33.7c4.2,0,7.6-3.4,7.6-7.6v-0.9H225.6z"></path><circle class="st0" cx="250" cy="178.1" r="2"></circle><path class="st1" d="M250,182.2c-2.3,0-4.1-1.8-4.1-4.1s1.8-4.1,4.1-4.1c2.3,0,4.1,1.8,4.1,4.1S252.3,182.2,250,182.2L250,182.2z
		 M250,178.1L250,178.1h2H250z"></path></g><g id="chart"><rect class="st2" x="150.1" y="121.9" width="199.9" height="221.4"></rect><path class="st1" d="M350,345.4H150.1c-1.1,0-2.1-0.9-2.1-2.1V122c0-1.1,0.9-2.1,2.1-2.1H350c1.1,0,2,0.9,2,2.1v221.4
		C352,344.5,351.1,345.4,350,345.4z M152.1,341.3h195.8V124H152.1V341.3z"></path><path class="st3" d="M310.4,205c0,5.6-0.8,11.1-2.3,16.4c-1.2,4.3-2.9,8.4-5,12.4c-10.6,19.5-31,31.6-53.1,31.6
		c-1.4,0-2.8,0-4.2-0.2c-33.3-2.3-58.3-31.2-56-64.4s31.2-58.3,64.4-56c23.2,1.6,43.5,16.5,52,38.2C309,190,310.4,197.5,310.4,205z"></path><path class="st1" d="M250.1,267.4c-1.7,0-3.1-0.1-4.4-0.2c-34.4-2.4-60.3-32.2-57.9-66.6c2.4-34.4,32.2-60.3,66.6-57.9
		c24,1.7,45,17.1,53.8,39.5c6.7,17.1,5.5,36.3-3.2,52.6C294,254.9,273,267.4,250.1,267.4z M250.1,146.7c-32.2,0-58.3,26.1-58.3,58.3
		c0,30.6,23.7,56.1,54.3,58.2c1.2,0.1,2.5,0.2,4.1,0.2c21.4,0,41.1-11.7,51.3-30.5c2-3.8,3.7-7.8,4.8-11.9
		c1.5-5.2,2.2-10.5,2.2-15.9C308.3,172.8,282.3,146.7,250.1,146.7L250.1,146.7z"></path><path class="st4" d="M310.4,205c0,5.6-0.8,11.1-2.3,16.4c-1.2,4.3-2.9,8.4-5,12.4L250.1,205v-60.4
		C283.4,144.6,310.4,171.6,310.4,205C310.4,205,310.4,205,310.4,205z"></path><path class="st1" d="M303.2,235.8c-0.3,0-0.7-0.1-1-0.2l-53.1-28.8c-0.7-0.3-1.1-1-1.1-1.8v-60.4c0-1.1,0.9-2.1,2.1-2.1
		c34.6,0.1,62.5,28.2,62.4,62.8c0,10.3-2.6,20.3-7.4,29.4c-0.3,0.5-0.7,0.8-1.2,1C303.6,235.8,303.4,235.8,303.2,235.8z
		 M252.2,203.7l50.2,27.2c1.6-3.2,2.9-6.6,3.9-10.1c1.5-5.2,2.2-10.5,2.2-15.9c0-31.4-24.9-57.1-56.2-58.2V203.7z"></path><path class="st5" d="M310.4,205c0,5.6-0.8,11.1-2.3,16.4c-1.2,4.3-2.9,8.4-5,12.4L250.1,205l56.2-22C309,190,310.4,197.5,310.4,205
		z"></path><path class="st1" d="M303.2,235.8c-0.3,0-0.7-0.1-1-0.2l-53.1-28.8c-1-0.5-1.4-1.8-0.8-2.8c0.2-0.4,0.6-0.8,1.1-0.9l56.2-22
		c1.1-0.4,2.2,0.1,2.7,1.1c0,0,0,0,0,0c6.7,17.1,5.5,36.3-3.1,52.5c-0.3,0.5-0.7,0.8-1.2,1C303.6,235.8,303.4,235.8,303.2,235.8z
		 M255,205.2l47.3,25.7c1.6-3.2,2.9-6.6,3.9-10.1c1.5-5.2,2.2-10.5,2.2-15.9c0-6.6-1.1-13.1-3.3-19.3L255,205.2z"></path><path class="st6" d="M316.3,283H183.8c-1.1,0-2.1-0.9-2.1-2.1c0-1.1,0.9-2.1,2.1-2.1c0,0,0,0,0,0h132.5c1.1,0,2.1,0.9,2.1,2.1
		C318.3,282.1,317.4,283,316.3,283z"></path><path class="st6" d="M316.3,303.2H183.8c-1.1-0.1-2-1.1-1.9-2.2c0.1-1,0.9-1.8,1.9-1.9h132.5c1.1,0.1,2,1.1,1.9,2.2
		C318.1,302.3,317.3,303.1,316.3,303.2z"></path><path class="st6" d="M276.6,323.3h-92.8c-1.1-0.1-2-1.1-1.9-2.2c0.1-1,0.9-1.8,1.9-1.9h92.8c1.1,0.1,2,1.1,1.9,2.2
		C278.4,322.4,277.6,323.3,276.6,323.3z"></path><rect class="st2" x="150.1" y="106.1" width="199.9" height="15.9"></rect><path class="st1" d="M350,124H150.1c-1.1,0-2.1-0.9-2.1-2v-15.9c0-1.1,0.9-2.1,2.1-2.1H350c1.1,0,2.1,0.9,2.1,2.1V122
		C352,123.1,351.1,124,350,124z M152.2,119.9h195.7v-11.7H152.1L152.2,119.9z"></path><circle class="st1" cx="162" cy="113.4" r="2.7"></circle><circle class="st6" cx="171" cy="113.4" r="2.7"></circle><circle class="st6" cx="179.9" cy="113.4" r="2.7"></circle></g><g id="graph"><path class="st2" d="M334.5,248.4h87.2c1.4,0,2.5,1.1,2.5,2.5v67.9c0,1.4-1.1,2.5-2.5,2.5h-87.2c-1.4,0-2.5-1.1-2.5-2.5v-67.9
		C332.1,249.6,333.2,248.4,334.5,248.4z"></path><path class="st1" d="M419.1,323.3h-81.9c-4,0-7.2-3.2-7.2-7.2v-62.6c0-4,3.2-7.2,7.2-7.2h81.9c4,0,7.2,3.2,7.2,7.2v62.6
		C426.3,320.1,423.1,323.3,419.1,323.3z M337.2,250.5c-1.7,0-3,1.3-3,3v62.6c0,1.7,1.3,3,3,3h81.9c1.7,0,3-1.3,3-3v-62.6
		c0-1.7-1.3-3-3-3L337.2,250.5z"></path><path class="st6" d="M414.2,308.1h-67c-1.1,0-2.1-0.9-2.1-2.1v-42.4c-0.1-1.1,0.8-2.1,1.9-2.2c1.1-0.1,2.1,0.8,2.2,1.9
		c0,0.1,0,0.2,0,0.3V304h64.9c1.1,0,2.1,0.9,2.1,2.1C416.3,307.2,415.3,308.1,414.2,308.1L414.2,308.1z"></path><path class="st6" d="M347.2,308.1c-0.5,0-1-0.2-1.3-0.5c-0.9-0.7-1-2-0.2-2.9c0,0,0,0,0,0l21.6-25.1c0.7-0.8,2-1,2.9-0.3l14.6,11.6
		l18.8-20.8c0.8-0.8,2.1-0.9,2.9-0.1c0.8,0.8,0.9,2.1,0.1,2.9l0,0l-20.1,22.2c-0.7,0.8-2,0.9-2.8,0.2l-14.6-11.5l-20.3,23.6
		C348.3,307.9,347.8,308.2,347.2,308.1z"></path></g><g id="magnifying-glass"><rect class="st2" x="118.5" y="309" transform="matrix(0.8362 -0.5484 0.5484 0.8362 -151.0807 122.315)" width="21.4" height="10.2"></rect><path class="st1" d="M123.1,326.3c-0.7,0-1.3-0.3-1.7-0.9l-5.6-8.5c-0.3-0.5-0.4-1-0.3-1.5c0.1-0.5,0.4-1,0.9-1.3l17.9-11.7
		c0.5-0.3,1-0.4,1.6-0.3c0.5,0.1,1,0.4,1.3,0.9l5.6,8.5c0.6,0.9,0.4,2.2-0.6,2.8c0,0,0,0,0,0l-17.9,11.7
		C123.9,326.2,123.5,326.3,123.1,326.3z M120.3,316.3l3.3,5.1l14.4-9.5l-3.3-5.1L120.3,316.3z"></path><rect class="st2" x="132.5" y="297.1" transform="matrix(0.8362 -0.5484 0.5484 0.8362 -143.7503 128.4903)" width="21.4" height="15.7"></rect><path class="st1" d="M138.6,319.4c-0.7,0-1.4-0.4-1.7-0.9l-8.6-13.1c-0.6-0.9-0.4-2.2,0.6-2.8c0,0,0,0,0,0l17.9-11.7
		c1-0.6,2.2-0.4,2.9,0.6l8.6,13.1c0.3,0.5,0.4,1,0.3,1.6c-0.1,0.5-0.4,1-0.9,1.3L139.7,319C139.4,319.2,139,319.4,138.6,319.4z
		 M132.8,304.8l6.3,9.6l14.4-9.5l-6.3-9.6L132.8,304.8z"></path><path class="st2" d="M119.4,313.2l6.7,10.2c0.5,0.8,0.3,1.9-0.5,2.4l-38.1,25c-0.8,0.5-1.9,0.3-2.4-0.5l-6.7-10.2
		c-0.5-0.8-0.3-1.9,0.5-2.4l38.1-25C117.8,312.2,118.9,312.4,119.4,313.2z"></path><path class="st1" d="M87.1,352.4c-0.4,0-0.8,0-1.2-0.1c-1.5-0.3-2.8-1.2-3.6-2.4l0,0l-4.7-7.1c-1.7-2.6-1-6.1,1.6-7.8l35-23
		c2.6-1.7,6.1-1,7.8,1.6l4.7,7.1c1.7,2.6,1,6.1-1.6,7.8l-35,23C89.3,352.1,88.2,352.4,87.1,352.4z M117.5,315.2
		c-0.3,0-0.6,0.1-0.8,0.2l-35,23c-0.3,0.2-0.6,0.6-0.7,1c-0.1,0.4,0,0.8,0.2,1.1l4.7,7.1l0,0c0.2,0.3,0.6,0.6,1,0.6
		c0.4,0.1,0.8,0,1.2-0.2l35-23c0.7-0.5,0.9-1.4,0.4-2.1l-4.7-7.1C118.5,315.5,118,315.2,117.5,315.2z"></path><path class="st2" d="M203.9,265.1c-11.2-17-34-21.8-51-10.6s-21.8,34-10.6,51c11.2,17,34,21.8,51,10.6
		C210.3,304.9,215.1,282.1,203.9,265.1z M196.4,294.5c-5.1,12.9-19.6,19.2-32.5,14.2c-12.9-5.1-19.2-19.6-14.2-32.5
		s19.6-19.2,32.5-14.2c0,0,0,0,0,0C195.2,267.1,201.5,281.6,196.4,294.5L196.4,294.5z"></path><path class="st1" d="M173.1,312.4c-3.4,0-6.7-0.6-9.9-1.9l0,0c-13.9-5.5-20.7-21.2-15.2-35c5.5-13.9,21.2-20.7,35-15.2
		c13.9,5.5,20.7,21.2,15.2,35C194.2,305.6,184.2,312.4,173.1,312.4z M164.7,306.7c11.8,4.7,25.2-1.2,29.9-13
		c4.7-11.8-1.2-25.2-13-29.9c-11.8-4.7-25.2,1.2-29.9,13C147,288.7,152.8,302.1,164.7,306.7z"></path><path class="st1" d="M173.1,250.5c-19.2,0-34.8,15.7-34.7,34.9c0,19.2,15.7,34.8,34.9,34.7c19.2,0,34.8-15.7,34.7-34.9
		c0-6.8-2-13.4-5.7-19C195.8,256.3,184.8,250.4,173.1,250.5z M173.2,324.1c-2.7,0-5.4-0.3-8-0.8c-21-4.4-34.5-24.9-30.1-45.9
		c4.4-21,24.9-34.5,45.9-30.1c10.1,2.1,18.9,8.1,24.6,16.7l0,0c11.8,18,6.7,42-11.2,53.8C188.1,321.9,180.7,324.1,173.2,324.1
		L173.2,324.1z"></path></g></svg>